# File created by Blade
# Date/Time:  Wed Apr 08 16:19:59 2015
# Frame Rate: 120.000 fps
#------------------------------------------------------
:FULLY-SPECIFIED
:DEGREES
1133
root -17.334872 27.407311 0.268763 357.850810 -82.732128 -417.085175
Spine -66.768774 -9.116615 4.505898
Head -93.693957 1.151514 12.835641
LeftShoulder -21.097418 -6.433443 44.862560
LeftArm 207.675085 -63.168275 -175.326419
LeftForeArm -30.077539 -0.000000 12.725885
LeftHand 18.669527 -0.000000 101.147973
LeftHandThumb1 -26.253704 0.000000 33.147579
RightShoulder -42.384692 39.120553 -78.786310
RightArm 29.397349 75.093198 36.084668
RightForeArm 22.444940 -0.000000 36.799374
RightHand 16.952951 -0.000000 -102.915629
RightHandThumb1 -24.326973 -0.000000 -32.862282
LeftUpLeg 6.666397 -3.188162 10.635319
LeftLeg 35.876438 -0.000000 -0.000000
LeftFoot 8.397278 -10.184742 -20.169729
LeftToeBase -23.667200 -0.000000 0.000000
RightUpLeg 8.391153 -10.516860 -6.593097
RightLeg 35.375682 -0.000000 -0.000000
RightFoot 13.064062 -1.262021 3.887351
RightToeBase -30.828883 -0.000000 0.000000
1134
root -17.254590 27.411082 0.270120 358.282222 -82.807752 -417.338981
Spine -66.914281 -9.078805 4.524856
Head -93.834691 1.117528 12.895548
LeftShoulder -21.092944 -6.428892 44.933628
LeftArm 208.224803 -63.052352 -175.772902
LeftForeArm -30.149821 -0.000000 12.576156
LeftHand 18.793089 -0.000000 101.109475
LeftHandThumb1 -26.253704 0.000000 33.147579
RightShoulder -42.478211 39.001739 -78.959540
RightArm 28.801133 75.426137 35.781187
RightForeArm 22.389128 -0.000000 36.833281
RightHand 16.867104 -0.000000 -102.821090
RightHandThumb1 -24.326973 -0.000000 -32.862282
LeftUpLeg 6.575832 -3.284028 10.526508
LeftLeg 35.505441 -0.000000 -0.000000
LeftFoot 8.885605 -9.861367 -20.130979
LeftToeBase -23.598578 -0.000000 0.000000
RightUpLeg 8.294350 -10.541113 -6.529148
RightLeg 34.906204 -0.000000 -0.000000
RightFoot 13.470092 -1.262769 3.759086
RightToeBase -30.518478 -0.000000 0.000000
1135
root -17.179292 27.413003 0.273416 358.711659 -82.896966 -417.630387
Spine -67.034420 -9.015955 4.557347
Head -93.955378 1.070760 12.966989
LeftShoulder -21.018216 -6.504446 44.999790
LeftArm 208.750853 -62.938012 -176.180060
LeftForeArm -30.022193 -0.000000 12.525603
LeftHand 18.818001 -0.000000 101.108454
LeftHandThumb1 -26.253704 0.000000 33.147579
RightShoulder -42.505451 38.878873 -79.152467
RightArm 27.713175 75.735873 35.099612
RightForeArm 22.374080 -0.000000 37.020132
RightHand 16.920267 -0.000000 -102.622066
RightHandThumb1 -24.326973 -0.000000 -32.862282
LeftUpLeg 6.515847 -3.317241 10.444732
LeftLeg 35.170291 -0.000000 -0.000000
LeftFoot 9.374756 -9.566865 -20.171667
LeftToeBase -23.616323 -0.000000 0.000000
RightUpLeg 8.241414 -10.539444 -6.477009
RightLeg 34.436605 -0.000000 -0.000000
RightFoot 13.857495 -1.241691 3.612681
RightToeBase -30.257686 -0.000000 0.000000
1136
root -17.102421 27.409098 0.278744 358.950149 -82.979235 -417.693534
Spine -67.179707 -8.967341 4.579767
Head -94.065227 1.037951 13.112135
LeftShoulder -20.925079 -6.721509 45.112448
LeftArm 209.143681 -62.699391 -176.446708
LeftForeArm -29.574223 -0.000000 12.684005
LeftHand 17.528557 -0.000000 101.549273
LeftHandThumb1 -26.253704 0.000000 33.147579
RightShoulder -42.467070 38.807715 -79.277145
RightArm 25.866863 75.930105 33.562598
RightForeArm 22.503675 -0.000000 37.198167
RightHand 16.930548 -0.000000 -102.400095
RightHandThumb1 -24.326973 -0.000000 -32.862282
LeftUpLeg 6.389529 -3.311582 10.347187
LeftLeg 34.866817 -0.000000 -0.000000
LeftFoot 9.761364 -9.252550 -20.152084
LeftToeBase -23.671060 -0.000000 0.000000
RightUpLeg 8.134827 -10.507775 -6.438129
RightLeg 34.014058 -0.000000 -0.000000
RightFoot 14.269362 -1.091821 3.431413
RightToeBase -29.944664 -0.000000 0.000000
1137
root -17.031595 27.403560 0.286755 359.336544 -83.086974 -417.985538
Spine -67.243372 -8.883988 4.636554
Head -94.187256 1.054638 13.208052
LeftShoulder -20.859814 -6.973417 45.150532
LeftArm 209.349473 -62.525894 -176.453904
LeftForeArm -29.250666 0.000000 12.771632
LeftHand 17.102296 -0.000000 101.555289
LeftHandThumb1 -26.253704 0.000000 33.147579
RightShoulder -42.445505 38.810240 -79.403491
RightArm 24.027028 76.042699 31.966426
RightForeArm 22.577335 -0.000000 37.370178
RightHand 16.893446 -0.000000 -102.324996
RightHandThumb1 -24.326973 -0.000000 -32.862282
LeftUpLeg 6.318935 -3.267983 10.287898
LeftLeg 34.651120 -0.000000 -0.000000
LeftFoot 10.028050 -8.964366 -20.002487
LeftToeBase -23.700687 -0.000000 0.000000
RightUpLeg 8.114556 -10.450403 -6.397546
RightLeg 33.574630 -0.000000 -0.000000
RightFoot 14.577228 -1.045531 3.303317
RightToeBase -29.466791 -0.000000 0.000000
1138
root -16.960695 27.391679 0.297194 359.669610 -83.178403 -418.142889
Spine -67.395398 -8.827669 4.687288
Head -94.265660 1.098929 13.403932
LeftShoulder -20.809458 -7.249027 45.263744
LeftArm 209.441265 -62.409543 -176.434118
LeftForeArm -28.870458 0.000000 12.937753
LeftHand 16.950087 -0.000000 101.578847
LeftHandThumb1 -26.253704 0.000000 33.147579
RightShoulder -42.353111 38.946265 -79.377360
RightArm 21.710196 75.902762 29.555142
RightForeArm 22.843537 -0.000000 37.300109
RightHand 16.936455 -0.000000 -102.442063
RightHandThumb1 -24.326973 -0.000000 -32.862282
LeftUpLeg 6.120452 -3.205483 10.226953
LeftLeg 34.529028 -0.000000 -0.000000
LeftFoot 10.256485 -8.677872 -19.918828
LeftToeBase -23.628978 -0.000000 0.000000
RightUpLeg 7.998492 -10.413494 -6.366963
RightLeg 33.159564 -0.000000 -0.000000
RightFoot 14.860044 -1.032533 3.244517
RightToeBase -29.429067 -0.000000 0.000000
1139
root -16.894414 27.377210 0.308998 359.997417 -83.264631 -418.377386
Spine -67.439991 -8.779718 4.751372
Head -94.351649 1.177162 13.511047
LeftShoulder -20.809856 -7.381096 45.259172
LeftArm 209.613047 -62.238291 -176.432283
LeftForeArm -28.398333 -0.000000 13.059904
LeftHand 16.365128 0.000000 101.706345
LeftHandThumb1 -26.253704 0.000000 33.147579
RightShoulder -42.251305 38.989457 -79.299096
RightArm 19.648802 75.854872 27.444773
RightForeArm 23.101480 -0.000000 37.312812
RightHand 16.493990 -0.000000 -102.932372
RightHandThumb1 -24.326973 -0.000000 -32.862282
LeftUpLeg 5.984279 -3.119572 10.192671
LeftLeg 34.466873 -0.000000 -0.000000
LeftFoot 10.438332 -8.446226 -19.864853
LeftToeBase -23.417529 -0.000000 0.000000
RightUpLeg 7.971690 -10.371816 -6.347349
RightLeg 32.765447 -0.000000 -0.000000
RightFoot 15.058482 -1.008056 3.211541
RightToeBase -29.160875 -0.000000 0.000000
